<?xml version="1.0" encoding="UTF-8"?>
<svg version="1.1" xmlns="http://www.w3.org/2000/svg" width="322" height="214">
<path d="M0 0 C106.26 0 212.52 0 322 0 C322 70.62 322 141.24 322 214 C215.74 214 109.48 214 0 214 C0 143.38 0 72.76 0 0 Z " fill="#FDFDFD" transform="translate(0,0)"/>
<path d="M0 0 C1 2 1 2 -0.00390625 5.4140625 C-2.73098296 12.99198909 -5.31061091 20.10896168 -11 26 C-11.74830078 26.80630859 -11.74830078 26.80630859 -12.51171875 27.62890625 C-21.48697151 36.29991316 -34.6580121 38.75155014 -46.62890625 39.98754883 C-64.02199823 41.79842222 -76.53575198 45.99290082 -88.2421875 59.55859375 C-90.55156408 62.76606122 -91.92836548 66.01642506 -93.2109375 69.73828125 C-93.97892771 71.93959972 -94.91537785 73.93921791 -96 76 C-95.67149477 61.9638674 -88.32914234 52.68532496 -78.91015625 42.80859375 C-64.18345266 28.79491491 -44.38798741 23.07915577 -25 19 C-37.01391391 19 -50.22238676 23.00656778 -61 28 C-61.928125 28.42925781 -62.85625 28.85851562 -63.8125 29.30078125 C-74.91412428 34.89890145 -83.67231632 42.62818299 -90.57421875 52.9453125 C-91.27998047 53.96238281 -91.27998047 53.96238281 -92 55 C-92.33 55 -92.66 55 -93 55 C-92.57839702 42.35191074 -85.81211836 31.78581353 -77 23 C-61.94805201 10.20924084 -44.9927345 7.05499058 -25.75 6.5625 C-11.82501534 6.4666372 -11.82501534 6.4666372 0 0 Z " fill="#A1CF1F" transform="translate(164,56)"/>
<path d="M0 0 C1.51400391 0.01740234 1.51400391 0.01740234 3.05859375 0.03515625 C4.07050781 0.04417969 5.08242187 0.05320312 6.125 0.0625 C6.90746094 0.07410156 7.68992188 0.08570312 8.49609375 0.09765625 C7.83058841 4.23315859 6.5001178 7.79253134 4.87890625 11.6484375 C4.62108368 12.26607468 4.36326111 12.88371185 4.09762573 13.52006531 C3.27644413 15.48527578 2.44909745 17.44781162 1.62109375 19.41015625 C-3.13023889 30.67885179 -3.13023889 30.67885179 -7.50390625 42.09765625 C-11.13390625 42.09765625 -14.76390625 42.09765625 -18.50390625 42.09765625 C-20.21486189 37.82026715 -21.24476688 33.89222075 -22.06640625 29.41015625 C-22.84831308 24.61985769 -22.84831308 24.61985769 -24.50390625 20.09765625 C-27.47390625 27.35765625 -30.44390625 34.61765625 -33.50390625 42.09765625 C-37.13390625 42.09765625 -40.76390625 42.09765625 -44.50390625 42.09765625 C-44.91382812 40.38578125 -45.32375 38.67390625 -45.74609375 36.91015625 C-46.29034423 34.63931804 -46.8346162 32.36848498 -47.37890625 30.09765625 C-47.64832031 28.97230469 -47.91773437 27.84695312 -48.1953125 26.6875 C-48.45957031 25.58535156 -48.72382812 24.48320313 -48.99609375 23.34765625 C-49.25358398 22.27128906 -49.51107422 21.19492188 -49.77636719 20.0859375 C-50.3910973 17.56100575 -51.03831434 15.04822487 -51.69921875 12.53515625 C-52.50390625 9.09765625 -52.50390625 9.09765625 -52.50390625 5.09765625 C-48.44541448 4.11377946 -44.6685937 4.05841302 -40.50390625 4.09765625 C-39.99747072 6.32536967 -39.49901005 8.55489701 -39.00390625 10.78515625 C-38.72546875 12.02652344 -38.44703125 13.26789063 -38.16015625 14.546875 C-37.61036499 17.52163843 -37.3659492 20.09134227 -37.50390625 23.09765625 C-36.84390625 23.09765625 -36.18390625 23.09765625 -35.50390625 23.09765625 C-35.26607422 22.20626953 -35.26607422 22.20626953 -35.0234375 21.296875 C-33.13062403 14.5726813 -30.52913397 8.38726013 -27.50390625 2.09765625 C-24.20390625 2.09765625 -20.90390625 2.09765625 -17.50390625 2.09765625 C-15.64398912 8.73136068 -13.94000608 15.35903398 -12.50390625 22.09765625 C-9.72521349 15.95038064 -7.10225709 9.75057843 -4.5546875 3.50390625 C-3.07697823 0.12000695 -3.07697823 0.12000695 0 0 Z " fill="#328A2C" transform="translate(171.50390625,92.90234375)"/>
<path d="M0 0 C1.29418498 3.85332561 2.58489426 7.70780691 3.875 11.5625 C4.23980469 12.64853516 4.60460937 13.73457031 4.98046875 14.85351562 C10 29.86647727 10 29.86647727 10 36 C5.71 36 1.42 36 -3 36 C-3.495 32.04 -3.495 32.04 -4 28 C-6.92183552 27.97895797 -9.82947849 28.00650841 -12.75 28.0625 C-13.575 28.05154297 -14.4 28.04058594 -15.25 28.02929688 C-17.68993247 28.09816594 -19.68078473 28.2282379 -22 29 C-24.03262683 31.2398036 -24.82290972 33.15105347 -26 36 C-30.29 36 -34.58 36 -39 36 C-36.65047487 30.12618718 -33.85775066 24.60634605 -30.9375 19 C-30.40189453 17.91976562 -29.86628906 16.83953125 -29.31445312 15.7265625 C-24.99941597 7.51227321 -20.88389601 3.88443696 -12.109375 1.07421875 C-11.33078125 0.94660156 -10.5521875 0.81898437 -9.75 0.6875 C-8.96109375 0.54699219 -8.1721875 0.40648438 -7.359375 0.26171875 C-4.88694122 -0.01254129 -2.48560383 -0.01728263 0 0 Z " fill="#186F2E" transform="translate(112,99)"/>
<path d="M0 0 C5.75 4.625 5.75 4.625 8 8 C8.25019321 10.77830837 8.38093944 13.40903054 8.375 16.1875 C8.37258301 17.33943848 8.37258301 17.33943848 8.37011719 18.51464844 C8.24314673 24.36275834 7.38532232 28.11008998 4 33 C3.443125 33.886875 2.88625 34.77375 2.3125 35.6875 C-2.13964078 40.13964078 -7.02476314 42.71982784 -13.234375 43.60546875 C-19.44361697 44.89587602 -22.88878408 49.11841103 -27.0625 53.625 C-27.83271484 54.42679688 -28.60292969 55.22859375 -29.39648438 56.0546875 C-31.28130095 58.02145263 -33.14774956 60.00261887 -35 62 C-35 58.87106132 -34.64644551 57.99648453 -33.1640625 55.3671875 C-32.76372803 54.65111328 -32.36339355 53.93503906 -31.95092773 53.19726562 C-31.51337158 52.43091797 -31.07581543 51.66457031 -30.625 50.875 C-29.95803101 49.69067383 -29.95803101 49.69067383 -29.27758789 48.48242188 C-25.25113291 41.36385867 -21.10930288 34.31304254 -16.93359375 27.28125 C-15.91121615 25.54630619 -14.90058714 23.80117428 -14 22 C-15.65 22 -17.3 22 -19 22 C-15.46386286 17.21224044 -11.85516296 12.53548584 -8 8 C-8 12.38887111 -9.96894323 15.12829803 -12 19 C-8.37 19.33 -4.74 19.66 -1 20 C-0.67 19.34 -0.34 18.68 0 18 C-2.64 18 -5.28 18 -8 18 C-6.10463724 11.48180123 -3.4821006 5.82185199 0 0 Z " fill="#24802A" transform="translate(211,94)"/>
<path d="M0 0 C3.96 0 7.92 0 12 0 C11.57765222 10.95191474 10.20634942 21.25603763 8 32 C14.93 32 21.86 32 29 32 C28.505 36.95 28.505 36.95 28 42 C17.11 42 6.22 42 -5 42 C-5 37.34937916 -4.95887572 33.99964033 -4.125 29.625 C-3.08028987 23.75684098 -2.35447993 17.8846133 -1.69775391 11.96337891 C-1.24848543 7.95010222 -0.70432191 3.97661394 0 0 Z " fill="#287E2E" transform="translate(225,93)"/>
<path d="M0 0 C1.56814453 0.00966797 1.56814453 0.00966797 3.16796875 0.01953125 C5.8125 0.1875 5.8125 0.1875 7.8125 1.1875 C6.71672771 4.47481688 6.03445399 5.06753756 3.4375 7.1875 C-2.09204742 11.86865116 -7.1045971 17.03356274 -12.1875 22.1875 C-13.51971523 23.5219505 -14.85260813 24.85572703 -16.1875 26.1875 C-13.5475 26.5175 -10.9075 26.8475 -8.1875 27.1875 C-8.88599772 31.1620504 -10.81642769 34.45324098 -12.75 37.9375 C-13.07935547 38.53949219 -13.40871094 39.14148438 -13.74804688 39.76171875 C-14.5571465 41.23920503 -15.37177662 42.71366036 -16.1875 44.1875 C-20.33735236 42.36922087 -21.87701593 40.09142135 -24.1875 36.1875 C-26.46911411 29.34265766 -26.2251792 21.45924537 -23.25 14.875 C-18.10008246 5.88098447 -10.50949912 -0.14360806 0 0 Z " fill="#3B962A" transform="translate(200.1875,90.8125)"/>
<path d="M0 0 C-3.0921585 3.0921585 -6.48555865 4.76442023 -10.8125 5.4375 C-17.85567489 6.68041322 -23.85368013 10.48781722 -30 14 C-20.43 14 -10.86 14 -1 14 C-1.33 14.66 -1.66 15.32 -2 16 C-4.58520508 16.51489258 -4.58520508 16.51489258 -8.01953125 16.89453125 C-9.27056641 17.04599609 -10.52160156 17.19746094 -11.81054688 17.35351562 C-14.43458136 17.65812831 -17.05949879 17.94895927 -19.68554688 18.23632812 C-35.30710794 20.15420699 -46.94919293 25.63082946 -57.2421875 37.55859375 C-59.55156408 40.76606122 -60.92836548 44.01642506 -62.2109375 47.73828125 C-62.97892771 49.93959972 -63.91537785 51.93921791 -65 54 C-64.67149477 39.9638674 -57.32914234 30.68532496 -47.91015625 20.80859375 C-36.02923142 9.50290922 -16.667392 -0.49021741 0 0 Z " fill="#23772D" transform="translate(133,78)"/>
<path d="M0 0 C-3.27968856 2.18645904 -6.10891994 3.04045067 -9.875 4.1875 C-26.29867832 9.48860019 -39.88927059 18.46801939 -49.57421875 32.9453125 C-50.27998047 33.96238281 -50.27998047 33.96238281 -51 35 C-51.33 35 -51.66 35 -52 35 C-51.61122039 23.33661183 -46.10897414 14.15695624 -38 6 C-37.34 6.33 -36.68 6.66 -36 7 C-37.32 9.31 -38.64 11.62 -40 14 C-39.2471875 13.49210937 -38.494375 12.98421875 -37.71875 12.4609375 C-26.29924204 5.06043113 -14.03741029 -1.60597491 0 0 Z " fill="#237533" transform="translate(123,76)"/>
<path d="M0 0 C1.32 0.66 2.64 1.32 4 2 C1 8 -2 14 -5 20 C-2.36 20 0.28 20 3 20 C2.67 20.99 2.34 21.98 2 23 C-1.63 22.34 -5.26 21.68 -9 21 C-8 18 -7 15 -6 12 C-8.97 15.63 -11.94 19.26 -15 23 C-13.68 23.33 -12.36 23.66 -11 24 C-12.34927545 28.53847198 -14.19159348 32.31932246 -16.625 36.375 C-17.25664062 37.43460938 -17.88828125 38.49421875 -18.5390625 39.5859375 C-19.02117187 40.38257813 -19.50328125 41.17921875 -20 42 C-20.99 41.67 -21.98 41.34 -23 41 C-21.63408831 37.45756548 -20.09068516 34.07372071 -18.375 30.6875 C-17.92898437 29.80449219 -17.48296875 28.92148438 -17.0234375 28.01171875 C-16.51683594 27.01591797 -16.51683594 27.01591797 -16 26 C-18.64 25.67 -21.28 25.34 -24 25 C-22.63854692 21.86391655 -21.20488211 20.0854655 -18.5625 17.9375 C-13.04666856 13.28036027 -8.06436822 8.13800201 -3 3 C-2.00107009 1.99893105 -1.00166251 0.99833472 0 0 Z " fill="#F3F8EB" transform="translate(208,92)"/>
<path d="M0 0 C0 4.38887111 -1.96894323 7.12829803 -4 11 C-0.7 11.33 2.6 11.66 6 12 C4.09476825 15.8104635 2.32340956 17.99593882 -0.5625 21.0625 C-5.61634223 26.52473352 -10.32172501 32.21253553 -15 38 C-16.94965264 40.4005359 -18.91551428 42.71214982 -21 45 C-21.66 45 -22.32 45 -23 45 C-21.58690314 41.2030852 -19.83330962 37.82028221 -17.77734375 34.33203125 C-17.15666016 33.27435547 -16.53597656 32.21667969 -15.89648438 31.12695312 C-15.25001953 30.03318359 -14.60355469 28.93941406 -13.9375 27.8125 C-12.65449668 25.63177583 -11.37192235 23.4507992 -10.08984375 21.26953125 C-9.52128662 20.30635986 -8.95272949 19.34318848 -8.36694336 18.35083008 C-7.53703566 16.92357856 -6.73834866 15.47669731 -6 14 C-7.65 14 -9.3 14 -11 14 C-7.46386286 9.21224044 -3.85516296 4.53548584 0 0 Z " fill="#BDDC21" transform="translate(203,102)"/>
<path d="M0 0 C-5.68880224 2.24694701 -11.31573092 3.92055187 -17.25 5.375 C-36.45800738 10.29156713 -55.82898136 19.04343409 -66.5859375 36.6015625 C-68 38 -68 38 -70.6640625 38.2109375 C-71.43492188 38.14132813 -72.20578125 38.07171875 -73 38 C-71.74830725 34.24492176 -69.82358723 32.75941479 -67 30 C-66.24976562 29.06671875 -65.49953125 28.1334375 -64.7265625 27.171875 C-53.10141987 13.12123433 -36.35574215 6.13461436 -18.97851562 2.42626953 C-16.97421153 1.9944439 -14.97968127 1.53011407 -12.984375 1.05859375 C-3.41236289 -1.1374543 -3.41236289 -1.1374543 0 0 Z " fill="#EBF2EC" transform="translate(143,74)"/>
<path d="M0 0 C-3.0921585 3.0921585 -6.48555865 4.76442023 -10.8125 5.4375 C-17.85567489 6.68041322 -23.85368013 10.48781722 -30 14 C-20.43 14 -10.86 14 -1 14 C-1.33 14.66 -1.66 15.32 -2 16 C-4.12963867 16.51831055 -4.12963867 16.51831055 -6.91796875 16.88671875 C-7.92537109 17.02013672 -8.93277344 17.15355469 -9.97070312 17.29101562 C-11.56301758 17.48727539 -11.56301758 17.48727539 -13.1875 17.6875 C-14.75081055 17.90116211 -14.75081055 17.90116211 -16.34570312 18.11914062 C-21.45630755 18.77218035 -25.93529333 19.28035785 -31 18 C-31.94875 17.814375 -32.8975 17.62875 -33.875 17.4375 C-34.57625 17.293125 -35.2775 17.14875 -36 17 C-35.505 16.5875 -35.01 16.175 -34.5 15.75 C-32.56613908 13.87797662 -32.56613908 13.87797662 -33 10 C-11.36178607 -0.33417018 -11.36178607 -0.33417018 0 0 Z " fill="#4F992A" transform="translate(133,78)"/>
<path d="M0 0 C0.33 1.65 0.66 3.3 1 5 C0.236875 5.12375 -0.52625 5.2475 -1.3125 5.375 C-4.20267136 5.88102792 -4.20267136 5.88102792 -7 8 C-7.36460453 10.66653905 -7.36460453 10.66653905 -7.1875 13.625 C-7.16042969 14.62789062 -7.13335937 15.63078125 -7.10546875 16.6640625 C-7.07066406 17.43492188 -7.03585938 18.20578125 -7 19 C-10.3 19 -13.6 19 -17 19 C-16.690625 18.113125 -16.38125 17.22625 -16.0625 16.3125 C-14.13262039 10.68006618 -14.13262039 10.68006618 -15 5 C-15.66 4.34 -16.32 3.68 -17 3 C-15.10614563 2.49255577 -13.20981334 1.99435426 -11.3125 1.5 C-9.72888672 1.08234375 -9.72888672 1.08234375 -8.11328125 0.65625 C-5.28857328 0.0608285 -2.87163292 -0.12786492 0 0 Z " fill="#22802B" transform="translate(112,99)"/>
<path d="M0 0 C-5.68856763 2.24685434 -11.31544811 3.92215793 -17.25 5.375 C-24.82740977 7.29655114 -31.8867885 9.72477129 -39 13 C-40.41496395 13.60814375 -41.83136927 14.21295963 -43.25 14.8125 C-44.1575 15.204375 -45.065 15.59625 -46 16 C-45.09935598 13.03579247 -44.53065711 11.37511968 -41.9609375 9.55859375 C-34.50864705 6.32776692 -26.94358432 4.2286102 -19.04296875 2.45849609 C-17.0147135 2.0033021 -14.99183988 1.52834528 -12.96875 1.05078125 C-3.40086603 -1.13362201 -3.40086603 -1.13362201 0 0 Z " fill="#EFF5EC" transform="translate(143,74)"/>
<path d="M0 0 C0.66 1.32 1.32 2.64 2 4 C1.20335938 4.67804688 0.40671875 5.35609375 -0.4140625 6.0546875 C-9.2830394 13.77346459 -15.79404374 21.08783617 -18 33 C-18.33 33 -18.66 33 -19 33 C-18.70163804 20.25180715 -12.77045616 11.03717844 -4 2 C-1.72265625 0.6875 -1.72265625 0.6875 0 0 Z " fill="#21673C" transform="translate(87,99)"/>
<path d="M0 0 C0 4.38887111 -1.96894323 7.12829803 -4 11 C-0.7 11.33 2.6 11.66 6 12 C3.9957983 16.0084034 2.50944037 17.41409657 -1 20 C0.875 15.25 0.875 15.25 2 13 C1.38125 13.495 0.7625 13.99 0.125 14.5 C-2 16 -2 16 -4 16 C-4.66 17.32 -5.32 18.64 -6 20 C-6.66 20 -7.32 20 -8 20 C-7.34 18.02 -6.68 16.04 -6 14 C-7.65 14 -9.3 14 -11 14 C-7.46386286 9.21224044 -3.85516296 4.53548584 0 0 Z " fill="#D4E82B" transform="translate(203,102)"/>
<path d="M0 0 C0.96679688 0.01804687 1.93359375 0.03609375 2.9296875 0.0546875 C4.01636719 0.08949219 4.01636719 0.08949219 5.125 0.125 C1.87412624 2.29224917 -1.31776333 3.34267383 -5 4.5 C-9.47977471 5.93305488 -13.76074823 7.4376613 -18 9.5 C-20.82812802 10.83654443 -21.70657414 11.13874905 -24.9375 10.875 C-25.576875 10.6275 -26.21625 10.38 -26.875 10.125 C-24.35107333 7.15006237 -21.65051428 6.00221894 -18.0625 4.5625 C-17.04542969 4.14871094 -16.02835938 3.73492187 -14.98046875 3.30859375 C-9.78912179 1.33000491 -5.60695294 -0.13675495 0 0 Z " fill="#549A25" transform="translate(117.875,75.875)"/>
<path d="M0 0 C1 2 1 2 0.00390625 5.2578125 C-0.46889984 6.5497052 -0.94971969 7.83868638 -1.4375 9.125 C-1.68048828 9.78371094 -1.92347656 10.44242188 -2.17382812 11.12109375 C-2.77578321 12.74991338 -3.38702412 14.37529575 -4 16 C-4.66 16 -5.32 16 -6 16 C-4.515 10.555 -4.515 10.555 -3 5 C-4.27875 5.474375 -5.5575 5.94875 -6.875 6.4375 C-15.49800248 9.63635576 -25.06772159 9.13740116 -34.125 9.0625 C-35.7028125 9.05573242 -35.7028125 9.05573242 -37.3125 9.04882812 C-39.87506221 9.03718011 -42.43749877 9.02082553 -45 9 C-45 8.67 -45 8.34 -45 8 C-39.79794918 7.09752856 -34.73251735 6.87176459 -29.45751953 6.76000977 C-13.60185672 6.94367469 -13.60185672 6.94367469 0 0 Z " fill="#D1EB45" transform="translate(164,56)"/>
<path d="M0 0 C0.66 0 1.32 0 2 0 C2.50757862 1.41396902 3.00574925 2.83131729 3.5 4.25 C3.7784375 5.03890625 4.056875 5.8278125 4.34375 6.640625 C5 9 5 9 5 13 C1.7 13 -1.6 13 -5 13 C-3.58192622 8.52761347 -1.88695626 4.28853694 0 0 Z " fill="#EBF3EB" transform="translate(100,105)"/>
<path d="M0 0 C5.75 4.625 5.75 4.625 8 8 C8 8.99 8 9.98 8 11 C7.34 11 6.68 11 6 11 C5.67 9.35 5.34 7.7 5 6 C4.21625 6.78375 3.4325 7.5675 2.625 8.375 C1.08333333 9.91666667 -0.45833333 11.45833333 -2 13 C-3.32 13 -4.64 13 -6 13 C-4.58707905 8.1725201 -2.57025846 4.2837641 0 0 Z " fill="#368F2D" transform="translate(211,94)"/>
<path d="M0 0 C-1.16290805 3.48872415 -2.13967609 4.09976864 -5.0625 6.1875 C-5.79597656 6.71730469 -6.52945313 7.24710938 -7.28515625 7.79296875 C-7.85105469 8.19128906 -8.41695312 8.58960937 -9 9 C-7.62845496 6.04590299 -6.01136276 3.55991624 -4 1 C-11.76066183 0.89845863 -16.25011506 2.13655355 -22.02734375 7.40625 C-24.071014 9.05737369 -25.43560625 9.58694329 -28 10 C-21.63417795 1.41578541 -10.99307746 -5.49653873 0 0 Z " fill="#69B737" transform="translate(208,92)"/>
<path d="M0 0 C0.99 0.33 1.98 0.66 3 1 C1.74566499 4.76300503 -0.19169424 6.19169424 -3 9 C-4.6360156 11.11073476 -6.20930857 13.25576272 -7.765625 15.42578125 C-8.37664062 16.20501953 -8.37664062 16.20501953 -9 17 C-9.33 17 -9.66 17 -10 17 C-9.58846263 12.02906176 -9.20399168 7.55491614 -7 3 C-6.67 3.66 -6.34 4.32 -6 5 C-5.071875 4.154375 -4.14375 3.30875 -3.1875 2.4375 C-1.60546875 0.99609375 -1.60546875 0.99609375 0 0 Z " fill="#1F673B" transform="translate(81,94)"/>
<path d="M0 0 C-4.02667374 4.02667374 -8.51308362 5.18279969 -14 6 C-14.825 6.37125 -15.65 6.7425 -16.5 7.125 C-19.66176835 8.23161892 -21.78114299 7.7485714 -25 7 C-22.5474195 4.5474195 -20.53774752 4.01296965 -17.25 2.9375 C-16.22390625 2.59589844 -15.1978125 2.25429687 -14.140625 1.90234375 C-9.39550769 0.53900781 -4.93441616 -0.14512989 0 0 Z " fill="#67A52C" transform="translate(133,78)"/>
<path d="M0 0 C0.66 1.32 1.32 2.64 2 4 C-3.61 9.61 -9.22 15.22 -15 21 C-15 17.21823079 -13.92444725 15.23032218 -12 12 C-11.3915625 11.71511719 -10.783125 11.43023437 -10.15625 11.13671875 C-7.22357362 9.59068827 -5.76149871 7.48994832 -3.75 4.875 C-2.69039062 3.50988281 -2.69039062 3.50988281 -1.609375 2.1171875 C-1.07828125 1.41851562 -0.5471875 0.71984375 0 0 Z " fill="#4C9A34" transform="translate(191,135)"/>
<path d="M0 0 C2.6015625 -0.29296875 2.6015625 -0.29296875 5.625 -0.1875 C7.12933594 -0.14689453 7.12933594 -0.14689453 8.6640625 -0.10546875 C9.43492187 -0.07066406 10.20578125 -0.03585938 11 0 C10.45276317 3.37462715 9.9451 5.08235 8 8 C8.33 6.02 8.66 4.04 9 2 C5.66042692 1.69857084 5.66042692 1.69857084 2 3 C-0.15826935 6.13590125 -1.60823737 9.46607738 -3 13 C-3.66 13 -4.32 13 -5 13 C-4.54803755 11.39402675 -4.08817673 9.79027492 -3.625 8.1875 C-3.36976563 7.29417969 -3.11453125 6.40085937 -2.8515625 5.48046875 C-2 3 -2 3 0 0 Z " fill="#5FB131" transform="translate(169,93)"/>
<path d="M0 0 C2.45823172 3.68734758 3.01242616 6.69699971 4 11 C6.64 11.33 9.28 11.66 12 12 C12.66 10.02 13.32 8.04 14 6 C15 9 15 9 13 14 C9.37 14 5.74 14 2 14 C0.4087311 9.126739 -0.21192221 5.19209404 0 0 Z " fill="#196A31" transform="translate(125,121)"/>
<path d="M0 0 C0.33 0.66 0.66 1.32 1 2 C-0.17755859 2.27263672 -0.17755859 2.27263672 -1.37890625 2.55078125 C-7.19425571 3.94218388 -12.60004859 5.42275046 -18 8 C-18 7.01 -18 6.02 -18 5 C-16.23002526 4.18563132 -14.45898848 3.3735706 -12.6875 2.5625 C-11.70136719 2.11003906 -10.71523437 1.65757813 -9.69921875 1.19140625 C-3.82365232 -1.40200585 -3.82365232 -1.40200585 0 0 Z " fill="#D5E6D7" transform="translate(106,98)"/>
<path d="M0 0 C0.99 0.99 1.98 1.98 3 3 C1.5489926 4.83913695 0.08898341 6.6711753 -1.375 8.5 C-2.18710938 9.5209375 -2.99921875 10.541875 -3.8359375 11.59375 C-4.55007812 12.3878125 -5.26421875 13.181875 -6 14 C-6.66 14 -7.32 14 -8 14 C-6.6744419 10.37723685 -5.05653045 7.36494652 -2.875 4.1875 C-2.33617187 3.39730469 -1.79734375 2.60710937 -1.2421875 1.79296875 C-0.83226562 1.20128906 -0.42234375 0.60960937 0 0 Z " fill="#A3CF25" transform="translate(188,133)"/>
<path d="M0 0 C3.3 0 6.6 0 10 0 C10.33 1.98 10.66 3.96 11 6 C10.34 6 9.68 6 9 6 C8.67 4.68 8.34 3.36 8 2 C6.02 2 4.04 2 2 2 C0.35 5.63 -1.3 9.26 -3 13 C-3.66 13 -4.32 13 -5 13 C-4.54554036 11.58208592 -4.08625056 10.16571954 -3.625 8.75 C-3.24214844 7.56664063 -3.24214844 7.56664063 -2.8515625 6.359375 C-2 4 -2 4 0 0 Z " fill="#5CAC34" transform="translate(144,95)"/>
<path d="M0 0 C-3.06848659 2.04565773 -5.32993651 2.78134287 -8.875 3.6875 C-9.90367188 3.95949219 -10.93234375 4.23148437 -11.9921875 4.51171875 C-15.0354359 5.00575258 -17.05155721 4.81054977 -20 4 C-13.50700359 -0.32866427 -7.56220495 -0.24220585 0 0 Z " fill="#69A71E" transform="translate(123,76)"/>
<path d="M0 0 C1 3 1 3 -0.21484375 5.69921875 C-0.78332031 6.68535156 -1.35179687 7.67148438 -1.9375 8.6875 C-2.78634766 10.17830078 -2.78634766 10.17830078 -3.65234375 11.69921875 C-4.09707031 12.45847656 -4.54179687 13.21773437 -5 14 C-9.15346337 12.15886392 -10.79679543 10.01297974 -13 6 C-13.25 3.125 -13.25 3.125 -13 1 C-10.8276509 4.25852365 -8.92880342 7.59244728 -7 11 C-4.04250209 7.53258866 -1.92151848 4.13126473 0 0 Z " fill="#207434" transform="translate(189,121)"/>
<path d="M0 0 C1 2 1 2 0.00390625 5.2578125 C-0.46889984 6.5497052 -0.94971969 7.83868638 -1.4375 9.125 C-1.68048828 9.78371094 -1.92347656 10.44242188 -2.17382812 11.12109375 C-2.77578321 12.74991338 -3.38702412 14.37529575 -4 16 C-4.66 16 -5.32 16 -6 16 C-5.01 12.37 -4.02 8.74 -3 5 C-4.65 5.66 -6.3 6.32 -8 7 C-8.66 6.34 -9.32 5.68 -10 5 C-9.36191406 4.72285156 -8.72382813 4.44570313 -8.06640625 4.16015625 C-7.24011719 3.79792969 -6.41382813 3.43570313 -5.5625 3.0625 C-4.73878906 2.70285156 -3.91507813 2.34320313 -3.06640625 1.97265625 C-1.05589883 1.16877677 -1.05589883 1.16877677 0 0 Z " fill="#D3EC2E" transform="translate(164,56)"/>
<path d="M0 0 C1 3 1 3 0.2578125 4.69140625 C-0.11601562 5.30886719 -0.48984375 5.92632812 -0.875 6.5625 C-3.4102427 11.25707011 -3.78417932 15.73397542 -4 21 C-4.33 21 -4.66 21 -5 21 C-5.144375 20.05125 -5.28875 19.1025 -5.4375 18.125 C-5.82935399 15.1065506 -5.82935399 15.1065506 -7 13 C-6.07421875 10.21484375 -6.07421875 10.21484375 -4.6875 6.9375 C-4.23761719 5.85339844 -3.78773438 4.76929687 -3.32421875 3.65234375 C-2 1 -2 1 0 0 Z " fill="#D5E8D5" transform="translate(179,100)"/>
<path d="M0 0 C-14.3125 5.52412281 -14.3125 5.52412281 -23 4 C-23 3.67 -23 3.34 -23 3 C-19.73172393 2.29994196 -16.46007824 1.61713756 -13.1875 0.9375 C-11.7943457 0.63875977 -11.7943457 0.63875977 -10.37304688 0.33398438 C-9.0340332 0.05844727 -9.0340332 0.05844727 -7.66796875 -0.22265625 C-6.84578857 -0.39547119 -6.0236084 -0.56828613 -5.17651367 -0.74633789 C-3 -1 -3 -1 0 0 Z " fill="#DAEBB3" transform="translate(143,74)"/>
<path d="M0 0 C0 3.19610552 -0.54671542 4.41717626 -2 7.1875 C-2.37125 7.90292969 -2.7425 8.61835937 -3.125 9.35546875 C-3.41375 9.89816406 -3.7025 10.44085938 -4 11 C-2.02 11 -0.04 11 2 11 C2 11.33 2 11.66 2 12 C-1.63 12 -5.26 12 -9 12 C-6.2520787 7.72545575 -3.30749011 3.85873847 0 0 Z " fill="#DCEE41" transform="translate(203,102)"/>
<path d="M0 0 C-0.875 3.875 -0.875 3.875 -2 5 C-1.01 5.66 -0.02 6.32 1 7 C-6.42857143 7.28571429 -6.42857143 7.28571429 -10 5 C-8.90241493 4.15801693 -7.79664683 3.32669329 -6.6875 2.5 C-6.07261719 2.0359375 -5.45773438 1.571875 -4.82421875 1.09375 C-3 0 -3 0 0 0 Z " fill="#3A872F" transform="translate(101,89)"/>
<path d="M0 0 C7.26 0 14.52 0 22 0 C21.67 0.66 21.34 1.32 21 2 C13.84687796 4.10385942 7.03641508 2.78702605 0 1 C0 0.67 0 0.34 0 0 Z " fill="#68A82D" transform="translate(110,92)"/>
<path d="M0 0 C3.96 0 7.92 0 12 0 C12 2.64 12 5.28 12 8 C11.67 8 11.34 8 11 8 C10.67 6.35 10.34 4.7 10 3 C4.91696314 2.88679144 4.91696314 2.88679144 0 4 C0 2.68 0 1.36 0 0 Z " fill="#69B63A" transform="translate(225,93)"/>
<path d="M0 0 C4.29 0 8.58 0 13 0 C11.83709195 3.48872415 10.86032391 4.09976864 7.9375 6.1875 C7.20402344 6.71730469 6.47054687 7.24710937 5.71484375 7.79296875 C4.86599609 8.39044922 4.86599609 8.39044922 4 9 C5.41791563 6.06553114 6.98332607 3.56667591 9 1 C6.03 1 3.06 1 0 1 C0 0.67 0 0.34 0 0 Z " fill="#5BB220" transform="translate(195,92)"/>
<path d="M0 0 C0.66 0.33 1.32 0.66 2 1 C0.68 3.31 -0.64 5.62 -2 8 C-1.34 8.33 -0.68 8.66 0 9 C-1.98 9.99 -1.98 9.99 -4 11 C-4 10.01 -4 9.02 -4 8 C-4.66 7.67 -5.32 7.34 -6 7 C-4.02 4.69 -2.04 2.38 0 0 Z " fill="#37882E" transform="translate(85,82)"/>
<path d="M0 0 C-2.34914492 2.34914492 -3.95679446 2.73140357 -7.125 3.625 C-8.49011719 4.01558594 -8.49011719 4.01558594 -9.8828125 4.4140625 C-10.58148438 4.60742188 -11.28015625 4.80078125 -12 5 C-12 4.34 -12 3.68 -12 3 C-12.66 2.67 -13.32 2.34 -14 2 C-9.07262981 0.02905192 -5.21979128 -0.1799928 0 0 Z " fill="#EAF2E1" transform="translate(124,78)"/>
<path d="M0 0 C1.32 0.33 2.64 0.66 4 1 C1.525 5.455 1.525 5.455 -1 10 C-1.99 9.67 -2.98 9.34 -4 9 C-2.80100302 5.9168649 -1.52299523 2.93720508 0 0 Z " fill="#EDF4E6" transform="translate(189,124)"/>
<path d="M0 0 C0.33 0.99 0.66 1.98 1 3 C-0.62324974 5.43487461 -1.80074553 7.17212359 -4 9 C-6.8125 9.375 -6.8125 9.375 -9 9 C-7.66073876 4.98221628 -5.50865531 4.21976152 -2 2 C-1.34 1.34 -0.68 0.68 0 0 Z " fill="#DDE8E2" transform="translate(79,103)"/>
<path d="M0 0 C-5.29230769 4.06153846 -5.29230769 4.06153846 -8.875 3.75 C-9.57625 3.5025 -10.2775 3.255 -11 3 C-7.22292518 -1.18176141 -5.06414757 -3.37609838 0 0 Z " fill="#328129" transform="translate(96,87)"/>
<path d="M0 0 C-2.51779914 2.51779914 -4.67114109 3.71966965 -8 5 C-11.375 4.1875 -11.375 4.1875 -14 3 C-9.56270856 0.04180571 -5.24640913 -0.15430615 0 0 Z " fill="#81B72C" transform="translate(133,78)"/>
<path d="M0 0 C0.66 1.32 1.32 2.64 2 4 C-0.31 5.98 -2.62 7.96 -5 10 C-4.49701212 5.59885603 -2.91227269 3.28804981 0 0 Z " fill="#408F3A" transform="translate(191,135)"/>
<path d="M0 0 C0.33 0.66 0.66 1.32 1 2 C6.1693489 1.59443869 6.1693489 1.59443869 11 0 C11 1.32 11 2.64 11 4 C7.37 4 3.74 4 0 4 C0 2.68 0 1.36 0 0 Z " fill="#1E6835" transform="translate(153,131)"/>
<path d="M0 0 C0.99 0.33 1.98 0.66 3 1 C1.75627811 1.98712878 0.50472782 2.96439905 -0.75 3.9375 C-1.44609375 4.48277344 -2.1421875 5.02804688 -2.859375 5.58984375 C-4.96092128 6.97425654 -6.54321799 7.56286987 -9 8 C-2.92207792 1.75324675 -2.92207792 1.75324675 0 0 Z " fill="#6FB136" transform="translate(94,74)"/>
<path d="M0 0 C1.32 0 2.64 0 4 0 C2.50902342 3.7952131 0.24299151 5.61042731 -3 8 C-2.690625 7.236875 -2.38125 6.47375 -2.0625 5.6875 C-1.32106407 3.81210323 -0.63771783 1.91315348 0 0 Z " fill="#DCEB3A" transform="translate(205,114)"/>
<path d="M0 0 C0.33 0.99 0.66 1.98 1 3 C2.98 3 4.96 3 7 3 C7 3.99 7 4.98 7 6 C4.36 5.67 1.72 5.34 -1 5 C-0.67 3.35 -0.34 1.7 0 0 Z " fill="#4FA047" transform="translate(204,107)"/>
<path d="M0 0 C-0.33 1.98 -0.66 3.96 -1 6 C-1.99 5.34 -2.98 4.68 -4 4 C-4 3.34 -4 2.68 -4 2 C-4.66 1.34 -5.32 0.68 -6 0 C-3.50907189 -1.24546405 -2.58919267 -0.7767578 0 0 Z " fill="#2B8034" transform="translate(101,102)"/>
<path d="M0 0 C0.33 0.66 0.66 1.32 1 2 C-3.455 2.495 -3.455 2.495 -8 3 C-7.67 2.01 -7.34 1.02 -7 0 C-3.88407501 -1.03864166 -2.9737344 -1.09036928 0 0 Z " fill="#F5F9F4" transform="translate(130,95)"/>
<path d="M0 0 C1.3921875 0.3403125 1.3921875 0.3403125 2.8125 0.6875 C1.6875 2.25 1.6875 2.25 -0.1875 3.6875 C-3.375 3.375 -3.375 3.375 -6.1875 2.6875 C-4.14987265 -0.14253799 -3.59070275 -0.35202968 0 0 Z " fill="#458F27" transform="translate(97.1875,83.3125)"/>
<path d="M0 0 C0 3.69418201 -1.28179295 5.77836178 -3 9 C-4.32 8.67 -5.64 8.34 -7 8 C-4.69 5.36 -2.38 2.72 0 0 Z " fill="#E5F054" transform="translate(203,102)"/>
<path d="M0 0 C-4.1795645 2.78637633 -6.14668677 1.79562512 -11 1 C-11 0.67 -11 0.34 -11 0 C-6.98195309 -0.84098656 -3.98196457 -1.05404945 0 0 Z " fill="#DFEDC9" transform="translate(131,77)"/>
<path d="M0 0 C0.66 0 1.32 0 2 0 C0.8141763 3.37503669 -0.27573689 5.64722731 -3 8 C-2.45276317 4.62537285 -1.9451 2.91765 0 0 Z " fill="#16542D" transform="translate(74,113)"/>
<path d="M0 0 C0.33 0.99 0.66 1.98 1 3 C0.34 3 -0.32 3 -1 3 C-1.66 4.32 -2.32 5.64 -3 7 C-3.66 7 -4.32 7 -5 7 C-4.67 5.68 -4.34 4.36 -4 3 C-3.34 3 -2.68 3 -2 3 C-2 2.34 -2 1.68 -2 1 C-1.34 0.67 -0.68 0.34 0 0 Z " fill="#CAE325" transform="translate(200,115)"/>
<path d="M0 0 C1 3 1 3 -0.3125 5.6875 C-0.869375 6.450625 -1.42625 7.21375 -2 8 C-2.66 8 -3.32 8 -4 8 C-3.40138258 5.64828869 -2.73075648 3.3140622 -2 1 C-1.34 0.67 -0.68 0.34 0 0 Z " fill="#E3F0E0" transform="translate(179,100)"/>
<path d="M0 0 C2.5 2.3125 2.5 2.3125 5 5 C5 5.99 5 6.98 5 8 C4.34 8 3.68 8 3 8 C2.67 6.35 2.34 4.7 2 3 C1.01 3.33 0.02 3.66 -1 4 C-0.67 2.68 -0.34 1.36 0 0 Z " fill="#479E31" transform="translate(214,97)"/>
<path d="M0 0 C3.3 0.33 6.6 0.66 10 1 C9.34 1.66 8.68 2.32 8 3 C2.54545455 2.54545455 2.54545455 2.54545455 0 0 Z " fill="#41902B" transform="translate(100,94)"/>
<path d="M0 0 C0.66 1.32 1.32 2.64 2 4 C-0.97 6.475 -0.97 6.475 -4 9 C-2.80100302 5.9168649 -1.52299523 2.93720508 0 0 Z " fill="#66AA39" transform="translate(179,147)"/>
</svg>
